<svg width="80" height="80" viewBox="0 0 80 80" fill="none" xmlns="http://www.w3.org/2000/svg">
<path d="M68.9771 36.6473C68.9771 52.5569 57.4273 67.4578 41.6479 71.8175C40.5742 72.1103 39.4029 72.1103 38.3293 71.8175C22.5499 67.4578 11 52.5569 11 36.6473V22.3645C11 19.6966 13.0172 16.6709 15.5224 15.6623L33.6442 8.24446C37.7111 6.58518 42.2985 6.58518 46.3654 8.24446L64.4873 15.6623C66.96 16.6709 69.0097 19.6966 69.0097 22.3645L68.9771 36.6473Z" fill="#3F9FF5" stroke="#17DAFB" stroke-width="3" stroke-linecap="round" stroke-linejoin="round"/>
<path d="M31.1272 42.0855H36.8137V55.3357C36.8137 57.2865 39.2429 58.2066 40.5311 56.7344L54.4622 40.9077C55.6768 39.5275 54.7015 37.3744 52.8612 37.3744H47.1746V24.1242C47.1746 22.1734 44.7454 21.2533 43.4572 22.7255L29.5261 38.5522C28.3299 39.9324 29.3053 42.0855 31.1272 42.0855Z" fill="#4FF0F0"/>
</svg>
